# xmcd CD database file
#
# Track frame offsets:
#	151
#	21325
#	39503
#	59318
#	76417
#	94404
#	121589
#	140873
#	160283
#	182955
#	209588
#
# Disc length: 3039 seconds
#
# Revision: 2
# Processed by: cddbd v1.4b41PL1 Copyright (c) Steve Scherf et al.
# Submitted via: Feurio! 1.60 - http://www.feurio.com
#
DISCID=900bdd0b,9e0bdd0b
DTITLE=Portishead - Portishead
DYEAR=1900
DGENRE=
TTITLE0=Cowboys
TTITLE1=All Mine
TTITLE2=Undenied
TTITLE3=Half day Closing
TTITLE4=Over
TTITLE5=Humming
TTITLE6=Mourning Air
TTITLE7=Seven Months
TTITLE8=Only You
TTITLE9=Elysium
TTITLE10=Western Eyes
EXTD=
EXTT0=
EXTT1=
EXTT2=
EXTT3=
EXTT4=
EXTT5=
EXTT6=
EXTT7=
EXTT8=
EXTT9=
EXTT10=
PLAYORDER=
